<svg width="247" height="36" viewBox="0 0 247 36" fill="none" xmlns="http://www.w3.org/2000/svg">
<path d="M21.75 18.485C25.26 19.355 27.015 21.83 27.015 25.91C27.015 28.85 26.025 31.1 24.045 32.66C22.095 34.22 19.245 35 15.495 35H2.625C1.755 35 1.14 34.82 0.78 34.46C0.42 34.07 0.24 33.455 0.24 32.615V5.885C0.24 5.045 0.42 4.445 0.78 4.085C1.14 3.695 1.755 3.5 2.625 3.5H15C18.39 3.5 21.015 4.25 22.875 5.75C24.735 7.22 25.665 9.32 25.665 12.05C25.665 13.49 25.305 14.795 24.585 15.965C23.895 17.105 22.95 17.945 21.75 18.485ZM14.19 9.8H7.8V15.92H14.19C16.74 15.92 18.015 14.9 18.015 12.86C18.015 10.82 16.74 9.8 14.19 9.8ZM15.54 28.7C18.09 28.7 19.365 27.605 19.365 25.415C19.365 23.225 18.09 22.13 15.54 22.13H7.8V28.7H15.54ZM46.7264 11.51C47.1464 11.66 47.4164 11.825 47.5364 12.005C47.6864 12.185 47.7614 12.47 47.7614 12.86V17.135C47.7614 17.855 47.4614 18.215 46.8614 18.215C46.6514 18.215 46.2764 18.185 45.7364 18.125C45.1964 18.035 44.6714 17.99 44.1614 17.99C42.4514 17.99 41.1464 18.545 40.2464 19.655C39.3464 20.765 38.8964 22.385 38.8964 24.515V32.615C38.8964 33.485 38.7014 34.1 38.3114 34.46C37.9514 34.82 37.3514 35 36.5114 35H34.0814C33.2114 35 32.5964 34.82 32.2364 34.46C31.8764 34.07 31.6964 33.455 31.6964 32.615V13.22C31.6964 12.14 32.1614 11.6 33.0914 11.6C33.7814 11.6 34.5314 11.9 35.3414 12.5C36.1814 13.1 36.9014 13.91 37.5014 14.93C38.9714 12.41 41.2214 11.15 44.2514 11.15C45.3014 11.15 46.1264 11.27 46.7264 11.51ZM73.8902 11.6C74.8202 11.6 75.2852 12.14 75.2852 13.22V33.83C75.2852 34.91 74.8202 35.45 73.8902 35.45C73.2602 35.45 72.5552 35.195 71.7752 34.685C70.9952 34.145 70.3052 33.425 69.7052 32.525C68.8952 33.485 67.7552 34.295 66.2852 34.955C64.8152 35.585 63.2252 35.9 61.5152 35.9C58.0052 35.9 55.1402 34.745 52.9202 32.435C50.7002 30.095 49.5902 27.125 49.5902 23.525C49.5902 19.985 50.7002 17.045 52.9202 14.705C55.1702 12.335 58.0352 11.15 61.5152 11.15C63.2252 11.15 64.8152 11.48 66.2852 12.14C67.7552 12.77 68.8952 13.565 69.7052 14.525C70.3052 13.625 70.9952 12.92 71.7752 12.41C72.5552 11.87 73.2602 11.6 73.8902 11.6ZM58.5002 27.8C59.5802 28.88 60.9152 29.42 62.5052 29.42C64.0952 29.42 65.4152 28.88 66.4652 27.8C67.5452 26.69 68.0852 25.265 68.0852 23.525C68.0852 21.785 67.5452 20.375 66.4652 19.295C65.4152 18.185 64.0952 17.63 62.5052 17.63C60.9152 17.63 59.5802 18.185 58.5002 19.295C57.4202 20.375 56.8802 21.785 56.8802 23.525C56.8802 25.265 57.4202 26.69 58.5002 27.8ZM84.647 8.405C83.507 8.405 82.532 8.03 81.722 7.28C80.942 6.5 80.552 5.57 80.552 4.49C80.552 3.38 80.942 2.45 81.722 1.7C82.532 0.949998 83.507 0.574998 84.647 0.574998C85.757 0.574998 86.717 0.964998 87.527 1.745C88.337 2.495 88.742 3.41 88.742 4.49C88.742 5.57 88.337 6.5 87.527 7.28C86.717 8.03 85.757 8.405 84.647 8.405ZM83.432 35C82.592 35 81.977 34.82 81.587 34.46C81.227 34.1 81.047 33.485 81.047 32.615V14.435C81.047 13.565 81.227 12.95 81.587 12.59C81.977 12.23 82.592 12.05 83.432 12.05H85.862C86.702 12.05 87.302 12.23 87.662 12.59C88.052 12.95 88.247 13.565 88.247 14.435V32.615C88.247 33.485 88.052 34.1 87.662 34.46C87.302 34.82 86.702 35 85.862 35H83.432ZM115.566 14.48C117.396 16.61 118.311 19.775 118.311 23.975V32.615C118.311 33.485 118.116 34.1 117.726 34.46C117.366 34.82 116.766 35 115.926 35H113.496C112.656 35 112.041 34.82 111.651 34.46C111.291 34.1 111.111 33.485 111.111 32.615V24.2C111.111 22.07 110.736 20.525 109.986 19.565C109.176 18.515 107.961 17.99 106.341 17.99C104.721 17.99 103.461 18.515 102.561 19.565C101.661 20.615 101.211 22.145 101.211 24.155V32.615C101.211 33.455 101.031 34.07 100.671 34.46C100.311 34.82 99.6959 35 98.8259 35H96.3959C95.5259 35 94.9109 34.82 94.5509 34.46C94.1909 34.07 94.0109 33.455 94.0109 32.615V13.22C94.0109 12.14 94.4759 11.6 95.4059 11.6C96.0659 11.6 96.7859 11.87 97.5659 12.41C98.3459 12.92 99.0359 13.655 99.6359 14.615C100.566 13.505 101.721 12.65 103.101 12.05C104.511 11.45 105.951 11.15 107.421 11.15C110.901 11.15 113.616 12.26 115.566 14.48ZM144.019 28.16C144.859 28.16 145.459 28.34 145.819 28.7C146.209 29.06 146.404 29.675 146.404 30.545V32.615C146.404 33.485 146.209 34.1 145.819 34.46C145.459 34.82 144.859 35 144.019 35H126.199C125.329 35 124.714 34.82 124.354 34.46C123.994 34.07 123.814 33.455 123.814 32.615V5.885C123.814 5.045 123.994 4.445 124.354 4.085C124.714 3.695 125.329 3.5 126.199 3.5H128.989C129.859 3.5 130.474 3.695 130.834 4.085C131.194 4.445 131.374 5.045 131.374 5.885V28.16H144.019ZM171.041 32.39C168.611 34.73 165.566 35.9 161.906 35.9C158.246 35.9 155.201 34.73 152.771 32.39C150.341 30.05 149.126 27.095 149.126 23.525C149.126 19.925 150.341 16.97 152.771 14.66C155.201 12.32 158.246 11.15 161.906 11.15C165.566 11.15 168.611 12.32 171.041 14.66C173.471 16.97 174.686 19.925 174.686 23.525C174.686 27.095 173.471 30.05 171.041 32.39ZM157.901 27.8C158.891 28.88 160.226 29.42 161.906 29.42C163.586 29.42 164.921 28.88 165.911 27.8C166.901 26.69 167.396 25.265 167.396 23.525C167.396 21.785 166.901 20.375 165.911 19.295C164.921 18.185 163.586 17.63 161.906 17.63C160.226 17.63 158.891 18.185 157.901 19.295C156.911 20.375 156.416 21.785 156.416 23.525C156.416 25.265 156.911 26.69 157.901 27.8ZM199.298 32.39C196.868 34.73 193.823 35.9 190.163 35.9C186.503 35.9 183.458 34.73 181.028 32.39C178.598 30.05 177.383 27.095 177.383 23.525C177.383 19.925 178.598 16.97 181.028 14.66C183.458 12.32 186.503 11.15 190.163 11.15C193.823 11.15 196.868 12.32 199.298 14.66C201.728 16.97 202.943 19.925 202.943 23.525C202.943 27.095 201.728 30.05 199.298 32.39ZM186.158 27.8C187.148 28.88 188.483 29.42 190.163 29.42C191.843 29.42 193.178 28.88 194.168 27.8C195.158 26.69 195.653 25.265 195.653 23.525C195.653 21.785 195.158 20.375 194.168 19.295C193.178 18.185 191.843 17.63 190.163 17.63C188.483 17.63 187.148 18.185 186.158 19.295C185.168 20.375 184.673 21.785 184.673 23.525C184.673 25.265 185.168 26.69 186.158 27.8ZM236.33 11.15C239.69 11.15 242.27 12.245 244.07 14.435C245.87 16.595 246.77 19.595 246.77 23.435V32.615C246.77 33.485 246.575 34.1 246.185 34.46C245.825 34.82 245.225 35 244.385 35H241.955C241.115 35 240.5 34.82 240.11 34.46C239.75 34.1 239.57 33.485 239.57 32.615V23.93C239.57 19.97 238.13 17.99 235.25 17.99C233.75 17.99 232.595 18.53 231.785 19.61C230.975 20.66 230.57 22.13 230.57 24.02V32.615C230.57 33.485 230.375 34.1 229.985 34.46C229.625 34.82 229.025 35 228.185 35H225.755C224.915 35 224.3 34.82 223.91 34.46C223.55 34.1 223.37 33.485 223.37 32.615V23.93C223.37 19.97 221.93 17.99 219.05 17.99C217.55 17.99 216.395 18.53 215.585 19.61C214.775 20.66 214.37 22.13 214.37 24.02V32.615C214.37 33.455 214.19 34.07 213.83 34.46C213.47 34.82 212.855 35 211.985 35H209.555C208.685 35 208.07 34.82 207.71 34.46C207.35 34.07 207.17 33.455 207.17 32.615V13.22C207.17 12.14 207.635 11.6 208.565 11.6C209.195 11.6 209.9 11.87 210.68 12.41C211.46 12.92 212.15 13.655 212.75 14.615C213.62 13.505 214.715 12.65 216.035 12.05C217.385 11.45 218.75 11.15 220.13 11.15C223.79 11.15 226.49 12.335 228.23 14.705C229.16 13.595 230.36 12.725 231.83 12.095C233.3 11.465 234.8 11.15 236.33 11.15Z" fill="white"/>
</svg>
